<mxfile host="65bd71144e">
    <diagram id="ixhiRJQENWjTGaqYPc56" name="ページ1">
        <mxGraphModel dx="1636" dy="960" grid="1" gridSize="10" guides="1" tooltips="1" connect="1" arrows="1" fold="1" page="1" pageScale="1" pageWidth="1654" pageHeight="2336" math="0" shadow="0">
            <root>
                <mxCell id="0"/>
                <mxCell id="1" parent="0"/>
                <mxCell id="32" value="&lt;div style=&quot;&quot;&gt;&lt;br&gt;&lt;/div&gt;" style="rounded=0;whiteSpace=wrap;html=1;align=center;verticalAlign=top;" vertex="1" parent="1">
                    <mxGeometry x="669" y="100" width="270" height="500" as="geometry"/>
                </mxCell>
                <mxCell id="22" value="&lt;div style=&quot;&quot;&gt;&lt;br&gt;&lt;/div&gt;" style="rounded=0;whiteSpace=wrap;html=1;align=center;verticalAlign=top;" vertex="1" parent="1">
                    <mxGeometry x="259" y="160" width="270" height="290" as="geometry"/>
                </mxCell>
                <mxCell id="18" value="&lt;div style=&quot;&quot;&gt;&lt;br&gt;&lt;/div&gt;" style="rounded=0;whiteSpace=wrap;html=1;align=center;verticalAlign=top;" vertex="1" parent="1">
                    <mxGeometry x="689" y="160" width="210" height="230" as="geometry"/>
                </mxCell>
                <mxCell id="3" value="&lt;div style=&quot;&quot;&gt;&lt;br&gt;&lt;/div&gt;" style="rounded=0;whiteSpace=wrap;html=1;align=center;verticalAlign=top;" vertex="1" parent="1">
                    <mxGeometry x="269" y="190" width="240" height="100" as="geometry"/>
                </mxCell>
                <mxCell id="5" value="User" style="shape=umlActor;verticalLabelPosition=bottom;verticalAlign=top;html=1;outlineConnect=0;" vertex="1" parent="1">
                    <mxGeometry x="29" y="230" width="50" height="100" as="geometry"/>
                </mxCell>
                <mxCell id="8" value="SpeechRecognition" style="rounded=0;whiteSpace=wrap;html=1;labelBackgroundColor=#FFFFFF;fontSize=14;" vertex="1" parent="1">
                    <mxGeometry x="295" y="240" width="170" height="30" as="geometry"/>
                </mxCell>
                <mxCell id="9" value="" style="endArrow=classic;html=1;fontSize=14;entryX=0;entryY=0.5;entryDx=0;entryDy=0;" edge="1" parent="1" target="8">
                    <mxGeometry width="50" height="50" relative="1" as="geometry">
                        <mxPoint x="89" y="255" as="sourcePoint"/>
                        <mxPoint x="169" y="260" as="targetPoint"/>
                    </mxGeometry>
                </mxCell>
                <mxCell id="10" value="&lt;span style=&quot;font-weight: 400;&quot;&gt;voice&lt;/span&gt;" style="text;strokeColor=none;fillColor=none;html=1;fontSize=16;fontStyle=1;verticalAlign=middle;align=center;labelBackgroundColor=#FFFFFF;" vertex="1" parent="1">
                    <mxGeometry x="149" y="240" width="50" height="30" as="geometry"/>
                </mxCell>
                <mxCell id="14" value="" style="edgeStyle=segmentEdgeStyle;endArrow=classic;html=1;curved=0;rounded=0;endSize=8;startSize=8;fontSize=14;exitX=1;exitY=0.5;exitDx=0;exitDy=0;" edge="1" parent="1" source="8">
                    <mxGeometry width="50" height="50" relative="1" as="geometry">
                        <mxPoint x="529" y="290" as="sourcePoint"/>
                        <mxPoint x="489" y="224" as="targetPoint"/>
                    </mxGeometry>
                </mxCell>
                <mxCell id="17" value="Input" style="rounded=0;whiteSpace=wrap;html=1;labelBackgroundColor=#FFFFFF;fontSize=17;labelBorderColor=none;fontStyle=1;strokeColor=none;" vertex="1" parent="1">
                    <mxGeometry x="352" y="176" width="70" height="30" as="geometry"/>
                </mxCell>
                <mxCell id="23" value="Client" style="rounded=0;whiteSpace=wrap;html=1;labelBackgroundColor=#FFFFFF;fontSize=17;labelBorderColor=none;fontStyle=1;strokeColor=none;" vertex="1" parent="1">
                    <mxGeometry x="269" y="145" width="60" height="30" as="geometry"/>
                </mxCell>
                <mxCell id="24" value="" style="shape=image;verticalLabelPosition=bottom;labelBackgroundColor=default;verticalAlign=top;aspect=fixed;imageAspect=0;image=data:image/png,iVBORw0KGgoAAAANSUhEUgAAAGQAAABkCAYAAABw4pVUAAAAAXNSR0IArs4c6QAABvNJREFUeJztnXlsFGUYh3970HaXbbfbltJCgRJISBAwEOUSahEBUSENFYiAiAUVBAykcoUIKAiEakJVjgoJWi4JIAREkEMalQYFbSMghCNAOdrudrvtskf3mvGPArJ0Z88O+5V5n3+/+WbemWfm/Y75JgMQBEEQBEEQBEEQBEEQRMtAFmoF+/XMbIDLFiOYpw95iarzjZJQaihDPwiXDWBp6PWkCAcAIQmRixMIES4khDFICGOQEMYgIYxBQhiDhDAGCWEMEsIYJIQxSAhjkBDGICGMQUIYg4QwBglhDBLCGCSEMUgIY5AQxiAhjEFCGIOEMAYJYQwSwhgkhDFICGOQEMYgIYxBQhiDhDBGGN+HRB97A49LV1w+y9RqGbp1aRXyPo0mDuZ7HACgTYoCGnXI3zI1Cy1SyPUKNwaOrvZZ1q9PLEr2pgbch9nCYctOC46UOHD6LwcaHLxXecf2SmQPjMVbb7TGoL6xzRJ3MLRIIZGysfgeln1uRv39J8IXFXfcKN7tRvFuK4YOisO6VTp0yhD/ckmqDeE4YFp+LeYurfMr43FO/N6AwTl6lJ93ihhdI5ISsqSgHtt/sIZV12D0ICevBrfuups5Km8kI+TiFRcKN5kj2ke1wYNp+SbwfOBtw0UybcgXG+/B7REuz+ygRLcurVBn5lB2zgmny/dVz0hXoMHBQxUnTi9MEkLcbuCnX+w+y2QyYP0qHd4ep4Hs/jWu0nswc5HJq05mByW+XKHDsKw4UWOVRMqqMnhgqvPdiI8dpcaU8f/LAIC0VAV2FaUgq38cFApg9tR4nD2SJroMQCJPiKFGOFf17uF7EKlUAt8U6GA0cejTM0as0Joe94kdKYrE+cn31yuEZXXKUKJThhgRCSOJlNU2RSFYtm2vFRcu+56GiQaSEJKkkwvOb9nsPF7K1WPzDgvc4g4xgkISQgBg9AiVYJnZwmH2YhN6Da1E0VYLLDYRBxoBkIyQWe9oAs7gXq9wY84SE7oOuIuFK+txu9LPwEUkJCMkNUWBtct1QW1bb+ZQuMmM7lmVeH9+7RMVIxkhADBxTGssn68NenuXm0fxbit6DqlEwXozPE/Ai6SEAMBHMxKwfV0yErXBn3qDg8eSgnqMeFMvOMBsLiQnBADGvKpG2dE0TBmvgUK4R9yEU2ccGDZeH9LUfahIUgjQOD2yYbUO5cfTMW2CJujJwguXXZi+wCRaXJIV8oCumUp89ZkOV0vbYcUCLdJSAz8y+w/bUHrWIUo8khfygCSdHPnTE3Dpt3QULtcFbGOKtlpEiYOEPEZsjAzvTdKg7GgaenUXnlQ8ecohyosqJoVYA4yU68yRNarXbgaeI0lLVWBTgfC4xWD0iNK4MyVEX+NB3txaDM6pbrIs51Fu3xUeEKhVwo2zwejBhA+M6DuyCldvBJbSq3sMdInCl8hoekqFcFxjTu41tAo791tx8YoLeXNrBV+jniwVblCTdb5PafdBG3oPq8K+wzbY7Dzy5hphs/t/EhscPKxW4W1a+5EfLlEXUnbOicE51ZizxIT6R1LRvsM2vDxOj5LShoezsC43j807LNi6R7hBbZ/u/YpHX+PB+OlGTP7Q6HVHnyl3YvJso6B0APjxmF2wXKkA2iSHMIgJkqi+oOJ5YGp+LS4KLAs9U+7EyIkGxLSSoU2yHNUGj9+FCgAwqK93Q/z1FgsO/Gzzue2hE3Zk5+qxcqEWWf3jIL9/ezqcPHbus2Lep3WCx+nbOzakQWWwRFWITAasXKTFmKk1fnssThePO1WBJ5LUKhkG9/Ne9pk/PR7b9lpRWe27ftm5Rum6RDk6tFPCauVQcccDl9t/Ost9XXg6PxKinrJeGaLCzCnxzbKvdyfFQxvvfUraeDm+XZsU8G421XH4518nrt10B5TRuaMSU8ZpIg3XJ1EXAgCrFyci9zV1RPvISFdg3gzfYrP6x6FoTdLDlBQJcbEyFK1J8tubiwQmhCgUwHeFyZiVF96Tok2QY8+mFMEeFtA49f79hpQmT1AoaNQy7CpKaZIWmxMmhACNUgo+TsTB4jbomhl80zbguVj8cagtnn0m8FKdUcNV+PNwW4wbrfZahxUImQwYNUyFv4+lYfiL4q7NCuMPOx2XQeQfunAccOi4HbsO2PDraQcMRu8GObODEi88H4vJY9XI6h/eBbpxy40d+6woKXWg/LwL96zegzy1SobePWIwqF/jNyJdOoXV//lE1bliWSgVmBTyOGYLhxojh5gYGZIS5aLk77p6DqZ6DjwPJCXKQ3qB5YeQhbSIhXIJGjkSNOJm10Rts0mIiOhHQHhBQhiDhDAGCWEMEsIYJIQxwuj2ykvu/8GSCIg8pL98EgRBEARBEARBEARBEERL4j8kECflvt/wMwAAAABJRU5ErkJggg==;" vertex="1" parent="1">
                    <mxGeometry x="509" y="140" width="40" height="40" as="geometry"/>
                </mxCell>
                <mxCell id="27" value="WebServer" style="rounded=0;whiteSpace=wrap;html=1;labelBackgroundColor=#FFFFFF;fontSize=17;labelBorderColor=none;fontStyle=1;strokeColor=none;" vertex="1" parent="1">
                    <mxGeometry x="699" y="145" width="100" height="30" as="geometry"/>
                </mxCell>
                <mxCell id="33" value="" style="shape=image;verticalLabelPosition=bottom;labelBackgroundColor=default;verticalAlign=top;aspect=fixed;imageAspect=0;image=data:image/png,iVBORw0KGgoAAAANSUhEUgAAAGQAAABkCAYAAABw4pVUAAAAAXNSR0IArs4c6QAACFpJREFUeJztnW1sW1cZx//Puc5LOyhtbKevmZrYa0cnVG0VAjStmzTQNpjE+FIhDRAVEyUvK01XXgTbaD9MgiKgJHNKt7IK8WEiaKiMAgJE9yINJkFbbWx9tb2MpYPGdpbQpo4d+/z50LRrHae+ubm2r5Pz+xLl3uc+/yf+6/oen/McBzAYDAaDwWAwGAwGg8HgHaTaBThldWRomYK1RYgVRQOECU3r6be6lrxd4dJmRW0a0k8rNJR6E4K11wsjeXa8bmLNu1tWXKxUabNFVbsAJ7QNJ9pKmQEAIrJy4UTD+krU5BY1aYjKWfW2g6kbyliK69SkIXMZY4jHMIZ4DGOIx6hJQ0SoyxHrBWrSkHQmPQBwxE4odf5E2Qtykdr8YAgg3Je4k5THQCwuGkBcoOjd8a7mP1S4NMNcomx3yLp+1l9Ijt5Q7Fx9LnExuvWmTOHxcE9qUdZnWYXHVYYc6F4y5S3KiYbXKYshoUjiEUKeEKDop2SCORH5fqwj8BgArNmbXKnJ35NyvWmO07T0/fGvNZ9xolEruP5QX7V/tAnED6Z7oQBAID4Qj4YiQ2EA0OSOEmYAwBrk1eNONWoF1w1pHM8th8iUt51iiJZVAEDKSjvxFKxyqlEr1OSwdy5jDPEYvmoXUIus62d9JpnakrayP3d78cvcIQ7IJlK7QPQ0TtSdDPem7nEztzFkhoR/llqnyUcAQERaKPqPbX2px93K774hGqO2Y30cBQCC/7MVz8ncDjRcI5/fIyJ1V34XESF3tT2Z+JEb6V03JLrVPyjEcyUDicPRc8HXAECJ2k9g7PrhyFha9jrVcIO2vsRnCPWpYudEZHs4kuqerUZ5pk52UoWbk3cAqrnYaa05fGPS/9KLOyV3+dja3sSKnMjHRMmUgYYm86R15JqWHgcas6W1L/mCIu6a7jzBnBJ1R7TD/6pTjZqd7a00bfuGb5SJ/ABESr1m/1rs8284skUmnOjYGvaG+pIPgPpucGq3B8kcLL4Sbw88CxECzprYvKhxTbpc/h4bZgDAR0YnUp8H8EsbsVPLLhUQ7kt+gSydnJBt8U7/T500sXlSo4BQJLkHwNdLXX8pB47GOwMb7MQWUvqhTtxrK5POfxpw2MTmQY0i2W6ydT0AAW5b3Zu82W781ZQ0hICtpjRaqh5w1sTmRY0iZ1psawKwLG6cSfxlzNSJTYRM09Yj5BKkerAtklouzLdCsAiQDwIAISMCvEvhCWgcjncFT199nTHEJoRcmEm8gBsBbISoguOTPymAAKEnkwMCPJ2bsPoGupeMmKkT2+h3ypJWsJqCJ6y6/KlQJHWvMcQuog6XNz+aAfbYMIRTxuRF82kQcNrE5j2NQiyFv4L2cjhFBAdsjLLkmL1kchRw1sTmRY1CTrcHzhJyyE4OR2j8Z+FYrqfkQ10vPL/Hl/7AUmq5HdMNkwX/8DXqXQAwuL0lHe5LPECiZBNbbOvyhFc1iqEs/T3m5X6bn9hnBEUeff0by8bMXJZN7tpJ32AweZ8mnhGRgJu5RbA32hHoAAqGvat/8t5i3eC++7WErhepH88GhFZQRAe0ws1C3vYOUncCstTtV4fAwZYh/9bo5O8CAKFIYocGv62g/O7KGUqwOxb0fwebJH/5gIQiyS8DOFDFouYdBI4KuCPWGXyh8JwP4INmWaQCkHlCXhbwqXgy0I+dUnTo7gPRbPxwD02JK9FxDRkT4LwQpwC8mWmsf2nwoQ8Nl7reB5FsBeqcNyjKl2JdwVccXw9hzbXsexUNHIs93OTYDABQ1OYOcQslmLLSOFN8Apx3o5j5DoGEXnD+V7PNo0ThrBsFzXcE0juwuXV8tnkUNAbdKGh+w5F8VvW6kUkBKM/CyzxCKD8stgfSCQqK/3Yj0XyFZNJaQFfuDgBQuYzvtXIvvMxlBNh96itB1wZGaqB7yQhEoqVDDUU4nb/hgmt3B3BloUb+6WbSeQFJKLS7MbK6mklD9BE3k84HRORArD3geuPDJUOU9Se3E89lNHRK+eq/VY7cCgBi7U1vEDDPEZsoWJ2ntyxKlif3JAI5WA6BOQflqVinf9ZTJNNxxRBCflsukTkD+Xome3FbOSXeX5oiJRRJnbDT5j8fIZlUWn88unVprJw67/cnXdo11FdOsZqFGBdRny23GUBBw1iD6GdADJVbtJYgmRXhplin/2+V0LvGkOOdzReo8ONKCNcEZF5BfTHaGfxdpSSntFRmx9M9IAYqVYBnIcYpsina5e+vpOwUQwa3t6RF0dbmxrmKhk6B6pPxzsBvKq1dtOk42hF8HtS/qHQxHuEMRG6fbbOCU6bdjuBbIA8LcLKSxVQfedbXyA1vdQRPVa2C650MRYbCpPzd7W5vr0FgTFG2Rbv8+6tdy3U37MQ6m6Mg7gP5XqUKqjQiOERat3jBDMBmU29479Ct1OoQMM3XWNQixIAo+Wa0w//rapdyNbY2fUbbm4/5ND8KYVUedO7CtwF+dXGdf43XzABm2vbeTyuUSHYTslOAot8o7VVIHhdBT0MwcOD4Ju92azrqe2/dc24pfNZ3leAhAAtcrsk1CGQU8ZxA7zvT1fxyteuxw6w2IqzaP9rUkMluJrBZILe4VdQsSYP4C5UcrNd1z5/sWpSqdkEzwbWdIa19ibVC+ZyAdxPyiUq9pZGcgOCoQF6F4MW0lf1zLf3fwkLKslVnwz7WDevUrUpzPSnrBfgwha0gVl3zBZIzgMR5pRhnnjFYVozQcdB6I5sZOzK4vSXt9t9QLSq7d6qfVvi/w8vzyPmVpZoEyk9qHxQWXSlIqxEoPa4hF0GMQqtx8WXPxdqXmWUBg8FgMBgMBoPBYDAYDAaDwWAw1Aj/B+Wo2OeYi0uQAAAAAElFTkSuQmCC;imageBackground=default;" vertex="1" parent="1">
                    <mxGeometry x="919" y="81" width="45" height="45" as="geometry"/>
                </mxCell>
                <mxCell id="34" value="Docker" style="rounded=0;whiteSpace=wrap;html=1;labelBackgroundColor=#FFFFFF;fontSize=17;labelBorderColor=none;fontStyle=1;strokeColor=none;" vertex="1" parent="1">
                    <mxGeometry x="680" y="85" width="69" height="34.5" as="geometry"/>
                </mxCell>
                <mxCell id="41" value="&lt;div style=&quot;&quot;&gt;&lt;br&gt;&lt;/div&gt;" style="rounded=0;whiteSpace=wrap;html=1;align=center;verticalAlign=top;" vertex="1" parent="1">
                    <mxGeometry x="1249" y="150" width="210" height="170" as="geometry"/>
                </mxCell>
                <mxCell id="42" value="ChatGPT" style="rounded=0;whiteSpace=wrap;html=1;labelBackgroundColor=#FFFFFF;fontSize=17;labelBorderColor=none;fontStyle=1;strokeColor=none;" vertex="1" parent="1">
                    <mxGeometry x="1259" y="139" width="100" height="30" as="geometry"/>
                </mxCell>
                <mxCell id="48" value="" style="shape=image;verticalLabelPosition=bottom;labelBackgroundColor=default;verticalAlign=top;aspect=fixed;imageAspect=0;image=data:image/png,iVBORw0KGgoAAAANSUhEUgAAAGQAAABkCAYAAABw4pVUAAAAAXNSR0IArs4c6QAADTlJREFUeJztnXuUV1UVxz8zMIw8FAUUFUlEw4AI0aCwl7wUSYwCyshEl0oaiWGpy5ap1bKyh0vKzFpitXSlQklrFVmJSEiYZFCpCw0SJcBBREAGcWAe/bHn5m9+3L3P497fzG9gvmvtf36/e/be5557zzn7dS50oAMd6EAHOhCHirZWwIHewAhgCDAU6A9UFfy/DagBngH+DjwLNLayjgc9+gCzgEeBeqApgF4F5gMTKP+HrezRF7gdeJOwQdDoeWRgO7dmJw4GVAFfA2rJZyDSBmZSq/WmnWMQsIrSDEQxzQeOaJ1utU98nNK9FRo9Bwxsjc7Foq0WvouQJ9Z3fn8Z+AfwIrAP2An0Ak4ETkJ2Yr68XgMmIruyskNbDMgs4G4P2euAe4EFyEBY6AmcDUwHPgF0clz/OrIT24oMav9mHruQbfNu4AXkQTiot9Fjgf3Y08pGYAbum6rhncjb1+CQ40N7gaeBbwKjgcpIncoSAxBDzroBPwW65yRvDPCSQ14o1QA3IbZSu0YF8Bf0jjYCV+Qssy/wI0NmFtoD3AEcmbPOrYZLsQfj8znK6gJcjawHpd61vQJMzVH3VkEvxKWhdeoLOcqaimwASj0QxXQv8iC0C3wdvSOLcpIxHHjckGPRdsQpuRJYBqxBdl+hfB6lHRie1eid20z2xfFoZAsd4oTcCdwHTEO2vBr6AOcBdxl9KKY1wFEZ+1RSXIyu/GUZ+FYBXwR2GPyLaQNiA1VHyKsGLkRsE5ecP1FmDs0TkUX6YeAN0pXeRPycey6wVuGbRq8Bs2kZR4lFFfBl4C2HzB/kICsTKhHf1CP4GWTXRMg4FVjswTuh/ciN6RXZJwunI2+cJb/Ndl/jEb+Q741qBI4P4H8k8G3cT2UhLQGGZeuWE8chkUpNhy2IO6bV0AeZlnxvUkL/8uTfCZnzrS1zMf0bmJy5Z/7oh9x4TZ/vtpYiYx2KWPQ9D/6jkB2LL89dwLW0jS0wGvFAp+lVSyu4WS4E6hQFfOgiB/8JAfwbgHsQN0lb4lZ0HW8ppeCrkDUgdjCagHMM/p3wt7SfQBbXGJwC/BB4EjEorwV6RPIC6IrYVdpaUhIv8XTcO6gG4H7gTOOaEYaMYQ7+TUiM4lPExXKOQhIp0t7ALcBM4m/eHEPnD0XyVDEKiQ1YN2o1cEbz9f2N604y5Iw32u0BbkaexlBUITdsu6MPTUiMf3SEjJ7oIek7Ivip6I7bQp1HywV1gHHtAEPWRKVNPTLIMTgfyTwJmVYbEfdKv0BZDyr8VkXqngorptCIuLqLETsgk5Q2b0XofRrwmKGHD9UCN+L/Vs5U+NQR57I5AEOwHXfXKu1iB2Sy0mZPgM7HkV8IN6ENiDPShcEGj3cH9EHFIkPAL4x2sQMyRWnzhoeu3ZCnebchu5heIcwDsAx58zR0Rn+Ax3n0wcQQQ7EN2NvE2AGZqrTZYbSpQGyjjYbMtKnoFmR9PBn7wSumeuAniOs/DTVKu08bffDCbYZS5zvaxg7IdKXNa8r1HyQs87EB+Bnpi/U4bN9U2kMylwO9yJod5TKITXRCN3Se8mgfOyAXKG22Fl03EFhoyEijpdg2EMiUMxt5AHz5FucOa2/qJx2yTZxlKHCBR/vYAfmM0mZL8/89ge8QNu+vAz7moXMheiGue1cOWSH9DnnzNHstk9PzeoXpDvy2b7EDcpHSZgsS9HLldaXR9ua2MYl3Q5EIoK+sncZ/mcIBv1KYLvRsHzsglxjtstIa4l0Y45FE7VjZDXjaMprfRptrV3qpH49SpmqeBvwZscBDAmQgAa8RyMzhswUvxnpkKnNCuwHalu65CGVCEJvP+zQyh7uQbJGfR4zakDj7PmT9OhXJwwpJwl4acO0BqER3sQ/35BE7ZV1htEuj/wKf5W3P7yQkaujbfi2SNR+DM4AVnnIy7bCOMBgP9uQROyCzjXaFtBuxyrul8KgGbiCsGOhhh14aKhBbxOUJ9117U1GN/oac6ckjdkCsmEKyON6D+KtcOAF4yMGvkN4k3r0/DMl+tPhfGcH3/9DiBud5to8dkLlGuyX4T5mFGIP7ZhXSi4hPLRS9kJiQxncv4o6KgrbF8y0ZiB2QLyltVgf3oCU64z/fJ/QHZAEPQW+k9E7j+YiLgbbL+o/y+1mBCqbByqfVdll1GWXWI0ZbCM5BUpZuwz/evh0Jsmm+t4lIEocKbUBWKL+PwS+W3WT8twQJaaYlkWkD0uAh04WYLXUX4DokYjoDv77XYM8k34rQw0xSGOXRvjvu7JQaJBm7sJM3Ktcuj+lEEUJcIBotR2rrfXC/wee9ocp3Qc8sf9CTh2/4dCVvp/PcpFzzeGgHAvS5Eylp8I0w7sRvcR6IHqz6cUwH7lKY7cfOHEkwFNvZVkgNyE25U/l/SUwHirBM4X1T8/+nIw+Hj76++mhJDzuJyLI8w1DoPk8eg5DXPOtU8cdQ5VPwhML7xoJrKpBpVIv6JdRIulFajPcZPHxtuhawonG+6fYVyIKoBbx86PcxyhdBe/pvSLm2J7LxsOIh1m4xQQV69dX1MZ0Yayi0DT+LOUEPZAsZkxfs4zh04SmF93VGm48YOvm6WrRp67dpF7vc3UvRn84+iKHT21OxWuSpeA/hU9CRZK+A0gJr1pb65YwyQVz+aTg5luFg7EPFVhNXpTSFsBLmZ5E3NhSuhLm5RttYj0Mhxinttwf2owVmGYolNysmRNkVceiFnCL3EH5ppcfjlzA3x+CRx4BoCeSNZMxm1ObChPYiT1tMVvoAwqqxaoGvkN6hbshW1tf9PtuhV9YBGWTwONyTRyqmGYwLaQVvZ8GH4mzCKmzXAR9tbluJ5NZuCmjfhO3myGNARijtG8gYsr7bUC5N2Hzg2Ag5VUh4VSupTqPFSBg3ZCASmmXokseAnKu0j4nNt8A6QzmNdiHbypjav+MRAzRrxZaLLjV0yGNAtJCC5lH3go+z0DW1TI+UPRLdhsiDLjZk5zEgv1baL/Bsn4rhhmK+/qomxOM6NEJ+JyTZzacCqpi2NbfVqoatnNusA1KNfn9SLXXfRUVzE+xFbvBiTz4TkIha6AkLDYjr5fWANnVInfgpiKPU4l0qTEE/PMAnR1qFlgS9oeCaSYSVjiVnkLgOahmBeAxC3oqFHHgcrOZTsnKVs74hf1XabiY+Bw3QT/VZV3RdFWKLhJzS8wzpxSz9kNKBkEqoVUiJQhq0jHZrbcsyIFrxUROScJcJWlb6ZuX6o5GilpBzrBYh/p3uSDFNSF7VRiQj0TJKtYfE8lrHDsjhiB9Ma5u5vE0rV67DfvVOQw8MpdFbSJmZ7/VWwlwxNLvGSvmJHRArfPsbD12dsAr63+XRfhru44xCKDE8Q9z/exReVt1GzIDcYLSpJ0NuViGq0eMYvqVaXZGnOet5749hF15q0Ip8rC8nhA7INQ7dcz3YTHNN/DKQTz/iLPDncdc2auiPvp5NNNr5Dkg17jOC1+I3tXpjniKolrjTOEfjV7C5HXGRxwSoEve+Nl01IeujBmtAkhDASOCfjj68SbzDVYUVzrwqkmfioU2zouuQg2JiTvmsQA6osXY6CVk7HusggA8gIQnXm16PfCAgd3RC3wFtJi5rPEEP5HDJpciR5PMQCzsGp6NnmBTTemxvhZUw6EOlOEK9BaxDkW8tpWAP9EVKFXwNyTrcpyvM8OSl8c98WIALR6PPx/uA95dagRR0QeInIWe9r0HmfhduD+BZPGPkkZjuhe8bimwivKAyCyYTVsL2KhKQ8vUjhdSVJLQA/0ycXHAEdph0LXGRwhAMQVKJfG/SPuRpD/m8xAkB/JsQs8DasZUU2iExCb1EXLWTCzEnLCwmvPAGJNLp4l2PJPGdTxl8yFKzSxLaS3jpsYYqws8gWYvEs2NwGPqO8g0kCvg55C0qG3TGr+biBcRbHBNX74bEvNd7yEloB3JQf5YH4UqD/8wMfEuOo7ALHQtpK3Lo2Qz0gwlAAkuXAw8QFlepRzJjLN4+OAY9mFVDTkf1lRKHE1edVIsEuFYAf0OsasvFYdHj5LNmVSBJ0Jqcm3OQ0SqoQtzhMTczC71Ivl8huNqQVUM7/AjYJMKO2oulPUhU8bAcdb8c28rPdCJcW6Insucv1Xdu7yT/s97nYDsJl1MG29qs6IUEpGK/oqDReuJOnk7DMeiJbAltJf4Q57JEJVJr9w0k/hG7cBdSEsKNOTAGZMt+Me5vk+wDPhwpIwpt8RpWAO9ArOckiawrEsTZhKxBfZHP0Ll8QvVI0sD9SGWs68DlQUic5BLclcSNiA30c8d1uaKc58XhyE32/SDKfsSLuxbZEe1AFv2eSGxlBP6W9X7EAHwgQN9DAifjDo/mTbuJj90fEuiOZDC2xmA8SYZizEMNYwn/7ETIW/FVyuyDkO0BVYiBluXI1kLag3itSx2/OehRicTD7yb8Q8L7kcPJLqM0H53MhHLeZfmiEtnOjkQOJTgW8fh2R7IV65Gt9LPIm7Wa8MPMOtCBDnSgAx0oe/wPncxhxgZLpKAAAAAASUVORK5CYII=;imageBackground=default;" vertex="1" parent="1">
                    <mxGeometry x="1429" y="134" width="40" height="40" as="geometry"/>
                </mxCell>
                <mxCell id="49" value="&lt;div style=&quot;&quot;&gt;&lt;br&gt;&lt;/div&gt;" style="rounded=0;whiteSpace=wrap;html=1;align=center;verticalAlign=top;" vertex="1" parent="1">
                    <mxGeometry x="689" y="500" width="210" height="70" as="geometry"/>
                </mxCell>
                <mxCell id="51" value="" style="shape=image;verticalLabelPosition=bottom;labelBackgroundColor=default;verticalAlign=top;aspect=fixed;imageAspect=0;image=data:image/png,iVBORw0KGgoAAAANSUhEUgAAAQAAAAEACAIAAADTED8xAAAAAXNSR0IArs4c6QAAAARnQU1BAACxjwv8YQUAAAAJcEhZcwAAGdYAABnWARjRyu0AABHkSURBVHhe7Z0JWxrZEobv//8L907ilgAuUeM2iYnGTJKZGBOlRUFwDYj7hrLIllun+8gYVITuAuHUV8/73ElulAZOfd1fV51z+j8vQkMASKPv5g8QAJBI780fIAAgEQgAiAYCAKKBAIBoIAAgGggAiAYCAKKBAIBoIAAgGggAiAYCAKKBAIBoIAAgGggAiAYCAKKBAIBoIAAgGggAiAYCAKKBAIBoIAAgGggAiAYCAKKBAIBoIAAgGggAiAYCAKKBAIBoIAAgGggAiAYCAKKBAIBoIAAgGggAiAYCAKKBAIBoIAAgGggAiAYCAKKBAIBoIAAgGggAiAYCAKKBAIBoIAAgGggAiAYCAKKBAIBoIAAgGggAiAYCAKKBAIBoIAAgGggAiAYCAKKBAIBoIAAgGvMF0Lc82Ls80GP1dz8A/VPP8gD9DP1k1e8KgT545Vu694ui/9P5fsz7ikwWAI0WjVxX0B9YHR1dm3q7+eEubzZmx2PTw5FJ/8ow/WS3FTBymB/C+YqeB30vlocGw2Ovo2/+3Jh5uzn3+7c09+f6zFB4/GXoFf0kKaHqRToaYwVAQ/s86B+Lvtm+iGfy2V81o1z+lbq+3D6Pz2x96lse6LJlUPWChuGkfncwMBp9s3ocPcmcFkpF/XXcF6Vy+Sx7ETxYfWH/YtWrdS5mCsDJ/tntz8Wag3pvUCq83/6LLgWGnepuQ98PXe6G1yY3z3ZK5ZL+5PXFUfo4sDJqjAYMFEBfaIjSd2p9Ro+Yq9g82/atDCtHFDLO9dqXuH92v+dLBf1pG4zjzEmvKUbRRAHY1+iLbEoPl9s4zpwORSYM04C6010eWD2K6g/pNhYPQs+WfFUv3okYKABK2dntT3qgvMVZ7oJuoI253NunhsDKsdfsp8gX83ReMOAiYJoAaFTozLR+uqkHynPEU0kSgAEjTR+hKxj4HJ/XH8xz/LkxY8CpwTgBqNtf3+7lnh4ljvic+Ea3jJ2uAUrWofB4rnitP5Xn+LD9mS62VUfpOEwUwJJv5zyuR4kj0vmsf2Wko4tC9LV0B/1rJxv6I3HE9NZHCKAdeR70f98L6lFiii/ORaBj74bpxncwPJ4v5fXnYYgyvaABlWIDBUDX+pG1KT1MTHFwdUQ51KEuyD79q7qn/jAckbq+pHutTreFhIECUONtBc6y53qsOKJULpOoOvSej76QXqufNKw/DEcs7C3RlbbqQJ2IiQIIqTbwt+SSHiumIFtFL9uJLkhdEiNTLpriD0X5V3lgdcyMTrmBAiBobAIro3q4mEK5IKvzXJDjf74mOP3P3tXB/xZfGOB/CDMFQGPzPOhLpJJ6xDiiVCoNRyZJA1XHanPoq6ArAK//mdv5u6vz6z8OZgqAoBGa3eLpB1diIUnG19d351jtjFMSaHTGW43IF/O9avGACad/wlgBOLO1rvn6PhT7V4c9HTVTmt5qF/mf3R/6A3BE9GTjj6WXVQfqXIwVgHJBS77IyboeN44odpoLaob/mVh/16HVsHsxVgAEjdNY9K0eN6aYTy52UPmPvoHhtakin/9J5S5VKcwU/0OYLAAaJ/aGwN7VIb1mR2QAvUnyP/Os/mdB1YJNmAVdwWgB2A0BunPVo8cRxVLxVWSipxNK4Oz+p1w2ZPrDbUwWAEGj1b/6Wg8gU3zd/d4RLoiyf2RtktH/qPL/kiHl/wqGC8C2Af74BWdDIHl10P6r5untqf4Xq//5sPOFPFXVgTodwwVA0JjNbn/WY8gRhVJxKDLR5k7A9j+BfT7/kyvm+uwratWBOh3zBeA0BBgXglC0vwtS/ifC6X+ip5smlf8rmC8Ayv7nQV/kOKZHkiPIDXdZ7VsNbIb/mTSr/F/BfAEQNHKvY5wNgUKp0M4uyPE/B1fH+u16jotc6nnQzM3CRAhAnRGtft6GwN+JBbq9rjpQm0CCH1bzf8r6vXoOeyq4UeX/CjIEoBsCnOskk6n99uyJ0lvi7X8VS6X2v+l3jQgBEDR+A6wNgUIp355doRv/w1b/SV4e0O2vkf6HkCIA+7zI3BD4Elcr5asO9OTY/S9O/zO388WY2f93kSIAgkbxw/YXPaockUztqeUB7XRq1P4nuajfoufIFnIvQq9M9T+EIAHYoziYK7A1BK6L5ILaa2ms7X845//E7PJ/5+4H8yiCBEDJYTcEOFcIfI7Pt5ULsus/k4z+ZzJmZvm/giABEDSW49FpPbYcsXvZRi6I3f9c5FLdbdzvY0GWAGgsu63AKV9DoK1cEH062/8c6jfnOb7vWaaW/ysIE0ATtgz6FP/aJi7oxv/wzP+xVz6Md8TKBy/IEgBBZ+uB8NgvNpP8K5FKPmsDF8Tuf/auTC7/VxAnAJUolj9+savH2XPkitf9q6+f3AXR5+pmrf98NHH2/13ECYCgcf2ww9kQUBtFPXWu9FgDwxE2/5MpZF8aXf6vIFEAzrgyrhCIKxf0lG7B9j9+xvk/zux/g8v/FSQKwEkXxoZArph7WhfE7n8mY+/NLv9XkCgAgtJlIsbZEHja7TKV/1mbKDP1v85z5/T9POEFrZUIFQCNLp3hGBsCOxe7z56oZuJc0L7ustV/JJT/K0gVAPeWQdkCuaCneY6Y8j9BNv9TKJfUxkedtgm2a4QKgKBkHQyPM26bPLvzNE9N7FkeoJTl8j/Jy30J5f8KcgWgnIMViPM9Q2DnPNF6F+T4H8b+VzuUdFuJXAEQlDo03nrkPUe2kA203AXZ/idwkObxP2TkfCvDT1jOaj2iBeCMdJZvhcDM9qcWuyDlf8LjXP7H+Nn/dxEtAMc/MG4ZtHMe/6OFu2fSgehWfp6v/mPq5j81EC0Aotvqn1x/r8ffc5ALauUz5bX/Yar/nGXPO2Xnd0akC4DGm855jFsGzWy1zgXx+p8fksr/FSAA5hUCW+c/W+OCbt45z/yfDnruAS/SBUDwNgTUPMqWFFJIAGr+D1P9R1r5vwIEoDKpKxhgXCHwbuuvFrggOlsPhSf0IT3HR2Hl/woQgMJuCLCtENg6a7oL0v6Hqf6TyWf8TzSP48mBABQ3DYGczghvkSlkmr2ahARA9+5c9R9d/pfnfwgIQOG4IMaGwLutj011Qbb/GdcH8xyT61Jm/98FAtDQDeXUxjudEZ5j42yneedU7X+Y5v+cZs8p+2We/gkIQEMZ0GMNcK0QIBdEr9nbNAEw+h9Rs//vAgFobk6rbA2B6c25JrkgRv9TLBWHI5MCy/8VIIB/oSvAYIStIbBxttUMF3QjVB7/k0ztP1tqrw2uWwwE8C+UB11W4CfTCoF0PmM/V5RfAHRhOUzzPP9L7f0vsvxfAQL4DdUQ4HuGwPTmB3YX1Kv8z5g+gLfI5LO+kNDyfwUI4DdUNqywNQRiJ8wuyPE/XOu/YqdNMWmdBQTwG8oFBQPhI56GQKZALmiAVwDK/zDVfybX33dLLf9XgACqUQ0BvhUCb5QLYksyukANMvmf0+xZr+DyfwUIoBrKCcYVAtGTDbIZVYdwDWP9Z3F/+Zng8n8FCKAaEsBzi23LoEw+02vxuCDtfzjqP6WSrM1/agAB3ANlxqvweLFc1PniLf7cmGVxQYz+Rz3ZacnwZx/VCQRwD+pcG2RrCKwxuSDGRrVT/he1+8NDQAD3QAKg/OB6hgC5ILoCeDzdMvqfdD7ra+HK/TYHArgfyg9faChTyOqs8RZTnucb0/tRT3biCLovf9qnGbQVEMD9OBeB1aOozhpvET6KPfPmghjrPxOCZ//fBQK4H/LHdkNgRmeNt0jn015cEKP/UeX/5UGc/itAAA9CWcK4QsDLI9dt//Nav5C3+LGvZv9DABUggAehLOmy2Aovq0drz5ZcNp4oZVneRqlcEj77/y4QQC1UQyAywdIQIBfUFXRTeqdfsef/MPifRGrP3XswGAigFir5+LYMmohNu3BBjP7H2fwH5f/bQAC1UC6IryGwcujGBXHVf9KFjD8ka+//eoAAHkE1BFZeZfIZnUce4iqfbvQG1PY//kOO/Q+jJ5u4/b0LBPAIzkWAqyEw3qALYvQ/E+vvGCdmGwME8Ag3DQGeFQLLB+GGJiFzzf85yZxxTUo1DAjgcShv6ExMOaSzyUNc5a9IAHUmIv1Yd5D8D0P9B+X/h4AAHkclouWf3+XZiX8s+rZOF0Sq619l8D+lcmlI5N7/9QAB1EWPNTAcmSiWGLYMsg5W63RBXP4nkdqjKwlO//cCAdSFfRHgWSFwSS6ojr0YnMsOi/+xy/9+lP/vBQKoC0rHLivA9QyB19E3j7og2/+M6l/wEOl81i/s0b8NAQHUC+UQZVKmwNAQCB6s0C1p1etXQf6H5fmnaycbuP2tAQRQL+oiEAyEOZ4hkLq+qv0IGeV/gv6j9In+BQ+BzX9qAwHUi9MQ4Hqo8GhNF8Tlf04yZ6QlnP5rAAE0AGUSpeZplqEhsLQfquGCuOb/OHv/QwA1gAAaQDkTi+fRdBe5B12QOkowcOjZ/xRV+X8cm//UBgJoDPItXA2BkbWpe10Ql/9JXCRJSDj91wYCaAz7IsCzQuDH3vK9LkjVfzj8z0ds/lMHEEBjkAC6rMCH7c86yzzERS71x2K1C1Kvr+o/XvtfGZT/6wMCaBi7ITBCGaZzzUOMrE1WeXR68QCH/0H5v04ggIZRLkg1BBhWCCzsBcnw3H5xLv8ztT6D8n89QAANw9gQOM9d/O+WC9L+J+O1/nOCzX/qBgJwA+UWZRhLQ+D2NuW2/xnR/+AhUP6vHwjADepUrVYIMHiVheRSxQWx+B89+x/l//qAAFzSY/WrLYM8NwQqLkiJimP+TyKF8n8DQAAuoQyjO4E4xwqBofA4mR8u/4PNfxoCAnCJLYDALEdD4OvuDzr3K//jedVlppDxhVD+bwAIwD2UZywNAbqZ/u9iHwng2LP/iZysk5bgf+oHAnCP7doDYY4tgwIro76VV/ovHmJqA7P/GwMCcI/TEGDZMujjzj+f4vP6L26DriSkSZz+GwIC8IRKOIthy6DD9HHycl//xW3Y5X/4n8aAADyhXJAVYGkI/Crr/7qLUrmsZv/j9rdBIACv9KiHCk+UmB4q7DriF8luC+X/hoEAvEI5p1YIpHieIeA65n6i/O8GCMArjgBYGgKuI1PI+jD73xUQAAN2Q2CY5RkC7iJyvI7bX3dAAAyoW2GmFQLuApv/uAYCYICcd4/VPxGb1vnY2jjNnGPvf9dAADxQ/hEsKwQaDWdZGQTgDgiAB+WCrADLasaGovzLLv9j9r9bIAA2nBUCpZK3hlaDkbjYRfnfCxAAG5SFPcFA4oJhhUD9MYfZ/96AANggAdDJeGb7k87N5ke2kHuJ2f/egAA44VohUGdEjmOY/e8RCIATdSvMtEKgnpjEo389AwFw4jQExqNvdYY2M44zpz3L/Tj9ewQCYMa+E+hPcCyWrx360XcQgDcgAGYcAUzG3uk8bU6cqr3f0P1lAALgh/KS7gSWD8M6W5sQE7FplP9ZgACagnN6TqT2dMKyxpf4N1X7R/ZzAAE0Bedu2BcaZnnS4+1YOgjB+jMCATQLRwP+leGt87hOXm9RLpf+SSx0wfmwAgE0EUcDxKf4fDqf1onsKnYv98ajb3HuZwcCaDqUsmTZA6sjC8lg6vpSZ3R9USqXd1N7s9t/kYq6LVT9+YEAWgElLt0W0/n7ZWjo7ebcl8S3lcPI1vnP/fTRYfr4Nkfp493L/djJ5uLe8tzO32P287Sd3Z4x460ZQACtw5aB6hKQErqtAGU2qeJe6J/I6xP0B6R+U4EAnoA+WwyPUvVboBlAAEA0EAAQDQQARAMBANFAAEA0EAAQDQQARAMBANFAAEA0EAAQDQQARAMBANFAAEA0EAAQDQQARAMBANFAAEA0EAAQDQQARAMBANFAAEA0EAAQDQQARAMBANFAAEA0EAAQDQQARAMBANFAAEA0EAAQDQQARAMBANFAAEA0EAAQDQQARAMBANFAAEA0EAAQDQQARAMBANFAAEA0EAAQDQQARAMBANFAAEA0EAAQDQQARAMBANFAAEA0EAAQDQQARAMBANFAAEA0EAAQDQQARAMBANFAAEA0EAAQDQQARAMBANHcEoA1BIA0eul/tQBupACAOEJD/wc6FMeSL/yfPAAAAABJRU5ErkJggg==;" vertex="1" parent="1">
                    <mxGeometry x="883" y="490" width="26" height="26" as="geometry"/>
                </mxCell>
                <mxCell id="50" value="VoiceVoxServer" style="rounded=0;whiteSpace=wrap;html=1;labelBackgroundColor=#FFFFFF;fontSize=17;labelBorderColor=none;fontStyle=1;strokeColor=none;" vertex="1" parent="1">
                    <mxGeometry x="691" y="488" width="138" height="30" as="geometry"/>
                </mxCell>
                <mxCell id="63" value="&lt;div style=&quot;&quot;&gt;&lt;br&gt;&lt;/div&gt;" style="rounded=0;whiteSpace=wrap;html=1;align=center;verticalAlign=top;" vertex="1" parent="1">
                    <mxGeometry x="269" y="320" width="240" height="110" as="geometry"/>
                </mxCell>
                <mxCell id="57" value="Output" style="rounded=0;whiteSpace=wrap;html=1;labelBackgroundColor=#FFFFFF;fontSize=17;labelBorderColor=none;fontStyle=1;strokeColor=none;" vertex="1" parent="1">
                    <mxGeometry x="352" y="305" width="70" height="30" as="geometry"/>
                </mxCell>
                <mxCell id="64" value="Animation" style="rounded=0;whiteSpace=wrap;html=1;labelBackgroundColor=#FFFFFF;fontSize=14;" vertex="1" parent="1">
                    <mxGeometry x="329" y="381" width="110" height="30" as="geometry"/>
                </mxCell>
                <mxCell id="70" value="" style="edgeStyle=segmentEdgeStyle;endArrow=classic;html=1;curved=0;rounded=0;endSize=8;startSize=8;fontSize=14;exitX=0;exitY=0.5;exitDx=0;exitDy=0;" edge="1" parent="1" source="64">
                    <mxGeometry width="50" height="50" relative="1" as="geometry">
                        <mxPoint x="211.98000000000002" y="439.96000000000004" as="sourcePoint"/>
                        <mxPoint x="289" y="360" as="targetPoint"/>
                    </mxGeometry>
                </mxCell>
                <mxCell id="75" value="" style="shape=image;verticalLabelPosition=bottom;labelBackgroundColor=default;verticalAlign=top;aspect=fixed;imageAspect=0;image=data:image/png,iVBORw0KGgoAAAANSUhEUgAAAGQAAABkCAYAAABw4pVUAAAAAXNSR0IArs4c6QAABjJJREFUeJztmmuIVVUUgL97HVPLR6llTy0r0iwjsxfSY7KyAiuywppQoSiJkLAHJpXNYJhQREghvabMnlIW9FCy7EUKlZLojJok0/hKpzLG5zg6/VjnMnv2Xefec8/cM96h9cFh5u519tprn3322muvfcAwDMMwDMMwDMMwDMMwDMMwDMMwDMMwDMMwDMMwDMMwDMMwDMP4v7ENaPGu0Y68UpHv6WAbOy3pw22A0RYbkBLDBqTEsAEpMcoS0PkDMNsrO5BAO0ZAvijLaAfmskqMMJd1NnADcCkwAOgJNAG/A73y6KwEnvTKdgc6fAYB1wEjgDOB3oFNfwOrgYXA0hxtHQtcGNQfCPQNrmOAg4GetcB3wCdEd51pR+/5yDPoFdi3G9gFNAKbAv01QC3wj6PjSKACGBPoOA7oCjQA64AlQDXicUI5C/gUOES2W8p15dsY7vLauQlZa6Lofg/o4tWfCWws0MZNwDW5Oo88+GeA+gJ1twAPO3omAH9GqLMneF5+/wCZEf/GMCTOgCwvUP+DXv1vYtp5ACjXOg/cg8yoOHobaPUAT8eovxBvUEYgUzGOMXEGZFmB+r/36scdkBbgV7J5qh36Wmh10Xe1Q0cliL9OAa8hPs+nGfF1NYgbGwzcSPHC5d2B/p+AOmA/cA7wRGBXhtMj6NqLDFxtYOswxEWlvPuGA6chLg/gTmBGiM6dyPpTD1wZ6HTZEtg9B+gBPBui53NgQWDXLYjL9nkEmAswFn3ENgBDlIqabyx0hsxF3qYeIR1Y49Vv9OTaDPlM0fNASN+uD+S9gK2KfD/wEG1f0jeV+6od+d0hbb2k2PViyL3T0sDNSoUW4HYkgkiCycB85K12SQEnKPcfFbOdV5G30icTKY4FjlfkU4DnaJul1iK07s7/YxT5PuAxpXwmErX6jE4DoxTBz8AKpbzY9ATGA68Dq5AObEHCbhff7URlH7Lg+mQepOY6tiMu3KdZKevm/H+BIl+FBEo+W9HXsiFlSKjns1opKyZdEJ85DeiTcFvaDMlwhlL2C/rD18rctbS/Iq/P0XY9stdx6V+GvpgnmXtKIXuLWxNsIyqau/LdaAZtQNxQtZsiL5SmzK7YN2xQEZSHMR59MDYDXwG/AVcAVydoQwbtxTs15N58M6QBOMmTn5Kj7YFK2Y40reGfy+XIVj8O+fJj45Wy+xDjJyIL3pqYbReKlrYYht73g0qZOyvWK/LhwNFKeV/gXKV8RRr4UhH0AN4iXnSTb48y2Pu9GXgZiew6mmVKWTfgFbJdkGafG2UtCZH7RxEAsxT9AIvLgHnI4nqEJ7wWGfV3kWRYCkna5RukrkqZu7D6HeuH5NDW5dGbBAvITsuAbH5rgY+AHcCJQZmP6w2qkQ1td++eexE3+EHw+zb0EHkb8E7mx2zalzpwN4bapmeHI/9QkTchkV0NsjvW2nCJujEEfeM3wZEvake/l3ttaZviqFcFtI7wdOD9kA4VSj+lzN0EzVfkXRHfPZTkw2CfScAfMevu935XIrOqUGYBb0PrgBwE7kAW1+0xjcughZI7nf8/RnI/pcI24BLg6xh1/QE5hLikGUT7Fm07MlunZwrcBbgFWVzfQPxlOTASCeX6IL6xEXm4jUh4uj74uzLQkQLOUxre4rUzBUk5TwIuQnx070DvHiTp2IAs+PVkb7DWk33gtSGk06sCPS5/eb+3Im63HBgHXIy8WE2BbCkye8d59fwcG8igVCH5uolI+D4UOUxrRgZhJbAYmRWJfkQ4iugJts7GPLL79UKxGyn2mfrUkPIfi9xOR5NCjrN96jrakEKYiD47Gun4hToqWv5JowK9byMTsqtdpIFHEf+oGR12aFMKVCH+fCri5/2z7QHA40jW2O9XHSX41c5oJFUfFlvXon9tUipU0dbevciXNWuRQCDXvmHyYbA3LycDzyMngr7BNSSbpCwG/oBEvRZRgrPDpR/yoUADkkGdQ/xTvo4kzoB8QefoGyDuKcoHCaXC/cjmLspA1CF5qbinl5FIVHknoSdwFXAZshnsj6TMG5Ac3EbgW+TDvlynj4ZhGIZhGIZhGIZhGIZhGIZhGIZhGIZhGIZhGIZhGIZhGIZhGIZhlBr/ARq6rcI6Wgt7AAAAAElFTkSuQmCC;imageBackground=default;" vertex="1" parent="1">
                    <mxGeometry x="849" y="130" width="60" height="60" as="geometry"/>
                </mxCell>
                <mxCell id="37" value="openai" style="rounded=0;whiteSpace=wrap;html=1;labelBackgroundColor=#FFFFFF;fontSize=14;" vertex="1" parent="1">
                    <mxGeometry x="742" y="206" width="80" height="30" as="geometry"/>
                </mxCell>
                <mxCell id="40" value="" style="endArrow=classic;html=1;fontSize=14;exitX=1;exitY=0.5;exitDx=0;exitDy=0;entryX=-0.022;entryY=0.419;entryDx=0;entryDy=0;entryPerimeter=0;" edge="1" parent="1" source="37" target="41">
                    <mxGeometry width="50" height="50" relative="1" as="geometry">
                        <mxPoint x="841" y="230.00000000000003" as="sourcePoint"/>
                        <mxPoint x="979" y="221" as="targetPoint"/>
                    </mxGeometry>
                </mxCell>
                <mxCell id="12" value="" style="endArrow=classic;html=1;fontSize=14;entryX=-0.038;entryY=0.567;entryDx=0;entryDy=0;entryPerimeter=0;" edge="1" parent="1" target="37">
                    <mxGeometry width="50" height="50" relative="1" as="geometry">
                        <mxPoint x="89" y="221" as="sourcePoint"/>
                        <mxPoint x="589" y="223" as="targetPoint"/>
                    </mxGeometry>
                </mxCell>
                <mxCell id="16" value="&lt;span style=&quot;font-weight: 400;&quot;&gt;input_text&lt;/span&gt;" style="text;strokeColor=none;fillColor=none;html=1;fontSize=16;fontStyle=1;verticalAlign=middle;align=center;labelBackgroundColor=#FFFFFF;" vertex="1" parent="1">
                    <mxGeometry x="559" y="207" width="80" height="30" as="geometry"/>
                </mxCell>
                <mxCell id="43" value="&lt;span style=&quot;font-weight: 400;&quot;&gt;request_text&lt;/span&gt;" style="text;strokeColor=none;fillColor=none;html=1;fontSize=16;fontStyle=1;verticalAlign=middle;align=center;labelBackgroundColor=#FFFFFF;" vertex="1" parent="1">
                    <mxGeometry x="969" y="203" width="90" height="33" as="geometry"/>
                </mxCell>
                <mxCell id="38" value="" style="shape=image;verticalLabelPosition=bottom;labelBackgroundColor=default;verticalAlign=top;aspect=fixed;imageAspect=0;image=data:image/png,iVBORw0KGgoAAAANSUhEUgAAAGQAAABkCAYAAABw4pVUAAAAAXNSR0IArs4c6QAADsNJREFUeJztnXeUXUUdxz+b3U0jkIWYkFAMIcmhRaTkKERIAZQSigcRgWACAoIgoaOhV5EmKBZUpEi1Id0gIi0JKCQEaUGaCZC2CWDaJtnsrn/87nXn/Wbu3Lnvvrf7Ft73nDnvvHdn5jf3/u6b+c2vDVRRRRVVVFFFcajp7AEEoA4YAewIbAEMicogoCfQG9ggqrsMWAWsBhYA7xplNvAKsK4Dx54ZlciQWmA3YD9gFLAT8tBLgZXALGAG8AgwHWgpUd+fKNQCBwC3A0uBtg4qS4DfAvtHY/jUYzBwCfA+HceEpPIecDHw2bLecYViK+TNXEdxD68FeBL4juPaidG1liL7bgZuBYaX7e4rCEOAO0hnxIdAU8K1Z4AdjD719Rg7AtMS+miKaPjGsA6ZQrco2d1XEHoCFyASUNIDWAncAuwDnOC43gycjC2IJDGEqO5k3C/ACRGtWyLavnGdB/TI+QwqBnsAb5F8w28iD7ohqv8lYI2q819g74T+fQyJsS8iEpv11kS0iGhPDhjnuAz3XXHoDlxJ8lz+KjCBQulmc2ChqtcEjPbQCWEIwFhkf2LWXQhsZtSpA44EXksYcwtwBVDvoVORGAo8j/umFgPH4xYzH8Z+AIem0AplCMA3sF+Qhxz16hCBoTHhHv4JbJlCq2IwGpHv9U20AjfSPjVpHOpo84MAelkYAvKG6zZfT6jbAPwqGrtu0wjsHkCvU/Et7Pm/DVFd7OFp1wDMV21eIGxqyMqQ7sBM1WY+0NfTZi/gPw5aa4BJATQ7Bd/D/fe+H9gwpe2PVZvVwNaBdLMyBGBb7Bfn+pQ2GwEPOui1AWcG0u0wTME9RU0hXV82CHvPcXUG2sUwBOBa1a4pGosPNcC5uKewszPQLitczGhCFtAQ6AezGP/0oVEsQxqwF+1rAtsehi2xVQRTJmK/LcuBMYHt+wMrVPvJGcdQLEMATlFtVwCfCWw7FnvsrYgo3ykYhz0PLyeb5HGZat9IdlV7Hob0xpYIL8nQfjRyz3r98+2byoKhuHVBsxEbRghqgQ9U+wuLGEsehoBoeM327xOuih+F3LMew1JEb9chqEc2Ri5pIy6PIXqibp5+9lVtVhE+XZjIy5D+2ELFPp763ZCxP+agbZZn6aAd/VUpAzHLG8BZiN1D43eq7l1FjicvQwDuVn3c46izBXIv/3bQTCpXFDmeYIzDVj08ATyaMrBW4DngdMQAtCH2W5mkPExDKRiyj+qjKRrjZ6MxP4db1DXLVORZmL+1EC7gZEYPYI4iuBgYGF0fjRiG0t6aVuAd9dsHFG9CLQVDXOvZO6QzIX4hY0FmILYo/TqiHSg5zncM5kBHvZHAncDagJuJy3xkt34UYnzKYnsoliE9IlpHR7S16sZX1iKGtp0d/X7VUf/c0EGFep0MQVTSPY3ffgMc62mzMSKTTwK2Dx1QhFbExv0m8Dbi0rMw+lyCCADLEJFzsWo7AFgfcQ3qjQgKg5C3dxAwLCqb4xc6XPgXYt69C1jkqXcL8nLFaAK2AeZmpOclYHL8I0Q6CcX2iMVQK/W6QpkZjf1zGe53APCx6uemDO29GI6YT83OT83R33V03MPMW67LcZ+nq76akX9mbtyuOn6dfPL106q/84CDgUsRY9FcivcYyVJaI1oPRbQPxl4nn85xn/XYQtBtaY3S1pBNETtAnfHbN5EFrRj0QP7K5lo0AjHnmuiJaAOGI6LnAGCT6LMf0Iv2dUJvJpfQvr40Ibvmxcj6s4j2tektRM1hYgTwsvG9CVFCrs10l+2YSCETmpH9zPwi++MiCjk8j3z/jlGqv6VkX1g19JufBzXYnpO75OivHvkXmv2d72vgexh12FLUtQiXi4W+uWnI1FEpaEP8fk3kYUgzIlKbOA7PnitN17Sp8X0FIurmwQj1fWbO/sqBF9T3LNKVCzchYnqMzfFoJXwMOVh9/zPClDzYTn1/KWd/5cDL6vu2OftbBjygftPPNhW12CqAfXMOrAbbWa0UrjSlXENARFOzv2XkD9s4UPW5hEJBKRXjVAeN5FclD1Z9riD/gg6lZ0g3bKNTXo/4emxDWNmUjlVUUUUVVVSh8TqFi9BVnrp/wl5cp3nqX63qPmNce1Fd+6mnnzsddGd56l+q6pr7oLfVtcs9/fzBQVfvX0xcoOpqVVEQLg/sZAPcgTitJEsn2t3/NM/gk2wI62FLQ3FJCkebpeqZhiPtsDc7oY+k+20jWZv7D1Uvi6vR/zHSQXCoo94xCYNrw62mH+KoZ7rMjHBcd23OJnjonuOoPwjbJLuNcX03Rz+uF+poD93vO+r3x9Zef95RLxU12Iqxkxz1HvcMcLqj/ndVnecddbTa2uXMrGNJzPKio75+cfQ/vhu2Gfd4Rz9/89B1qYKOUnXecdQJxk9UZ4+o65tQyP1ZFIaFtVIYoUTUh9nnFAfdK1WdJ9T1/hTa7F+Nim/a0uvcpQ66v1R17nfcrxmv+BLi6uSbtrS7k28tToXesa+i0NXzDHX9DOyF05y2emEHWG7loLuLqrOWwkCfk9T1c6OSNG3VY5tUzUjeGHs77reXcV1bAc9GvC2TXrB6xNxtXv+Cg24wahHjjtnheOO6aSNvQf4NW6v65rS1v7qmFXkxahBDkln3EOP6dHVtGKKaMdcIc9raU9VPmjbqsV1kTS9G835bEWPTUEXXlPL0C/0eJUhncrPq9OfR7/rBP260MaUZU9r6hWpzkYfuz1Tdm6Pf9YM37RczVJs46EdLUL5p4w5V94aE+33KaKOlqJjuNer3tKCgIBygOp0X/X6J+v0Yo82Z6los1uqwMJ+tYS9VdxGy8J6jfj/ZaOOaysAWEr7oofs1VTf+N+mp+NtGm8nqWjxd6r1cSWISe2CrzUdQ6OO6Bgn5iqEXvxnIwzf7eDOFbj22OXUkMs3F35sR/68YerGfjS1mv49/2uiNvc5t67jffoqu6ZnzooPuQkqY4Ob3qvN7Hd81/m5cb0V23GabKwPo3pZCd6qjjRaHtaR4g6ONxn0pdLX0BfCXFLo3BtANxuGqc10OcbQ5VtXR6S1CpA2XW6ZZJjraHJFCd2wA3YkpdF2x80em0P1yAN1grI87pq4NSXvRy9GmwdMmVNrohR02Fpcm3LGIPpVKI2GWugbc4d1tyPTtivLy0Q22EIZa7JYjU5ALf0QejsbH2BtJs01bAN0mJNTBhfuRl0FjJbYNO8a9hKX4+5hkJ7l7KXRaMOk+mNDmgUC6mXAcbu7v6WlzSEKbLNKGngricpCnzX4JbbLEoJyY0Idv6hmf0Ga8p03RGIA9L87HLzn0xN6pZpU2+mJPHx/iD1mow05i8xHZ4jQGYisFF+Gfelx0l1HoqVlFFVVUUUUVHYoxFC5MS8kfuNiVHOX03qccjnKZsj2kqd2LgcuV1GUSzopSM2Q4tpRUalfSxA1q0hvagp367vCcg2pDtJ8m8nqWlwM6QDW2RObBEer7fSRsFH1ThlYYHgT0yTEosO3YWaNzOwI6ZOK1nP1tgJgwTLiUsYCfIVMRVXWMPvjDoEPwivruivPubIxU35OsmqE4jkLd1zzgr8V2pu3F75Fvcd9V9dcVQtp8xqw0uELazksbgA+bRB2aC9BEJDK3GIQGffamMMA/DvofgBiD4nND+lJoKIL2oM+ViHJyCYVBn/MQz5i3sJWipQ76nIQkGojRjEibC4rsD5Ck+SaH51DasOjzkYiiyxDtsHZuKFdpRZjzcES71GHR3bFdhG71tgiEK3HAad4WfnxaEgdoF6m1lEbMB2zPk2JSa1xI106tkUUi3BjbD+zXIQ2zJJ95lULL4M0Uepq4BjUBcaXMut9ooX2uj5PPxAloFiNz+wpkrWhUbfsjomafaLwDaF+DBiFv6TBk953V6eBlZNq5E3/ymVspTLC8CnGUKFnyGRDpQL89pUzPdD3tmYOySHK6r1B0j2hNimgXk55Ji8jg9gNwucvmRloCszGI81jazXzSEpg9SbteypXA7DXKlMAMxGOj2BR/z9Ke4q8BO8bCl3jSh1IwRCfkLCbF36N0cIq/GD9MGZhZ5iDShktbepeqe3eR4ykFQ+5RfbiSYA5GPDK1KOsrIac75EY98sb4BjIV+Ap+ocHlaZ5FcouRlyEDyJYmtgYZe9qsMJ2MyQHyYEvc5w3ORtQjIajFPi7v4iLGkpch2kc5SyLlXXEnUm7EnRq3rBiN7Qi3nGyGF51Vegkdm2p8PWzDUZaXYgy2MasJCY/rFByJvditIPzwrH7Y3n6nZBxDHoachv1Cad1YEvbAnYw/r90oN1wHuawmfGA6RLqR5GORXCiWIRti/ztCzy2ZgNtNtmIOdnExpRXZTKZpAwZii8Ch53jgoBuKH6l2q2jfUyWhBlFAukTgimFGjLNwSxsPURg74sL1qs0aCkOWfSiGIduR/cijftgBq/GLl0fZWlYchdtrfC5+n9i+2DvlmYTtcLMypDt2togP8J/qszdus8BqJCloRWN33Of/tSJH0CUdEOZyzA45XSArQ1wbW1d8C9FYbyL52LxOk6ayYkuSD5ZcgsQCujZN+hS0FtLPssrCkMOwVT+uEII6JMGB6zzGNrrYwZIx6pE3PCkp8hzEHGwyZjNEza6nBZ8+KJQh47AlowUUJvqsQ7S/SeqRdYg6pMsdvWpiLP5DUN5GkgvEU9ko7Ae3jOScjyEMGY/tpLeadq3CRsjCrDMCmeUNOuFsqXKhBxKi7DsmexVivx+P+/judcimMevx3afiPr77+IjW7SSf3d6GbP6mUEYVemdiMBJZq230unxE8kOahhxeHyOJITthZ3yISxN2IJEuzYjlL69fb5fAMMQEnMWqqBf7p3CHnZ2IeIsUm9B/LZIwusst2qXAZojzwzyKe3ilLHMRZwZzkf/UohZJTHMbyaJmOUpjRHM8JcyykAe5M9OUAbWIpLVf9LkzoiYvBVYiuRFnIGqQZ5GprWJQiQzRqEN0Tzsg7khDkLRIgxCX0j5IYgMQ9fkKRKRdgCS7eRdxWJiNuDJVFAOqqKKKKqqoolT4H8eOJ4GOaTaZAAAAAElFTkSuQmCC;imageBackground=default;" vertex="1" parent="1">
                    <mxGeometry x="1109" y="194" width="100" height="100" as="geometry"/>
                </mxCell>
                <mxCell id="83" value="VoiceVox Request" style="rounded=0;whiteSpace=wrap;html=1;labelBackgroundColor=#FFFFFF;fontSize=14;" vertex="1" parent="1">
                    <mxGeometry x="724" y="305" width="140" height="35" as="geometry"/>
                </mxCell>
                <mxCell id="52" value="" style="endArrow=classic;html=1;fontSize=14;entryX=0.713;entryY=0.013;entryDx=0;entryDy=0;entryPerimeter=0;" edge="1" parent="1">
                    <mxGeometry width="50" height="50" relative="1" as="geometry">
                        <mxPoint x="832.27" y="340" as="sourcePoint"/>
                        <mxPoint x="831.73" y="500.90999999999997" as="targetPoint"/>
                    </mxGeometry>
                </mxCell>
                <mxCell id="54" value="&lt;span style=&quot;font-weight: 400;&quot;&gt;response_text&lt;/span&gt;" style="text;strokeColor=none;fillColor=none;html=1;fontSize=16;fontStyle=1;verticalAlign=middle;align=center;labelBackgroundColor=#FFFFFF;" vertex="1" parent="1">
                    <mxGeometry x="793" y="401" width="90" height="30" as="geometry"/>
                </mxCell>
                <mxCell id="53" value="" style="endArrow=classic;html=1;fontSize=14;entryX=0.179;entryY=1;entryDx=0;entryDy=0;entryPerimeter=0;exitX=0.414;exitY=0.4;exitDx=0;exitDy=0;exitPerimeter=0;" edge="1" parent="1">
                    <mxGeometry x="690" y="190" width="50" height="50" relative="1" as="geometry">
                        <mxPoint x="757.0020000000001" y="500" as="sourcePoint"/>
                        <mxPoint x="757.0600000000002" y="340" as="targetPoint"/>
                    </mxGeometry>
                </mxCell>
                <mxCell id="55" value="&lt;span style=&quot;font-weight: 400;&quot;&gt;response_audio&lt;/span&gt;" style="text;strokeColor=none;fillColor=none;html=1;fontSize=16;fontStyle=1;verticalAlign=middle;align=center;labelBackgroundColor=#FFFFFF;" vertex="1" parent="1">
                    <mxGeometry x="703" y="440" width="90" height="30" as="geometry"/>
                </mxCell>
                <mxCell id="84" value="" style="edgeStyle=segmentEdgeStyle;endArrow=classic;html=1;curved=0;rounded=0;endSize=8;startSize=8;fontSize=14;exitX=-0.005;exitY=0.706;exitDx=0;exitDy=0;exitPerimeter=0;entryX=0.897;entryY=0.051;entryDx=0;entryDy=0;entryPerimeter=0;" edge="1" parent="1" source="41" target="83">
                    <mxGeometry width="50" height="50" relative="1" as="geometry">
                        <mxPoint x="883" y="408" as="sourcePoint"/>
                        <mxPoint x="843" y="372" as="targetPoint"/>
                    </mxGeometry>
                </mxCell>
                <mxCell id="47" value="&lt;span style=&quot;font-weight: 400;&quot;&gt;response_text&lt;/span&gt;" style="text;strokeColor=none;fillColor=none;html=1;fontSize=16;fontStyle=1;verticalAlign=middle;align=center;labelBackgroundColor=#FFFFFF;" vertex="1" parent="1">
                    <mxGeometry x="969" y="255" width="90" height="30" as="geometry"/>
                </mxCell>
                <mxCell id="85" value="" style="edgeStyle=segmentEdgeStyle;endArrow=classic;html=1;curved=0;rounded=0;endSize=8;startSize=8;fontSize=14;exitX=0;exitY=0.5;exitDx=0;exitDy=0;" edge="1" parent="1" source="83">
                    <mxGeometry width="50" height="50" relative="1" as="geometry">
                        <mxPoint x="741.9999999999998" y="481.23" as="sourcePoint"/>
                        <mxPoint x="89" y="356" as="targetPoint"/>
                        <Array as="points">
                            <mxPoint x="659" y="323"/>
                            <mxPoint x="659" y="356"/>
                        </Array>
                    </mxGeometry>
                </mxCell>
                <mxCell id="73" value="&lt;span style=&quot;font-weight: 400;&quot;&gt;text&lt;br&gt;voice&lt;br&gt;animation&lt;br&gt;&lt;/span&gt;" style="text;strokeColor=none;fillColor=none;html=1;fontSize=16;fontStyle=1;verticalAlign=middle;align=center;labelBackgroundColor=#FFFFFF;" vertex="1" parent="1">
                    <mxGeometry x="129" y="321" width="90" height="70" as="geometry"/>
                </mxCell>
                <mxCell id="61" value="&lt;span style=&quot;font-weight: 400;&quot;&gt;response_text&lt;br&gt;response_audio&lt;br&gt;&lt;/span&gt;" style="text;strokeColor=none;fillColor=default;html=1;fontSize=16;fontStyle=1;verticalAlign=middle;align=center;labelBackgroundColor=#FFFFFF;" vertex="1" parent="1">
                    <mxGeometry x="549" y="340" width="90" height="32" as="geometry"/>
                </mxCell>
                <mxCell id="87" value="" style="edgeStyle=segmentEdgeStyle;endArrow=classic;html=1;curved=0;rounded=0;endSize=8;startSize=8;fontSize=14;entryX=1;entryY=0.5;entryDx=0;entryDy=0;" edge="1" parent="1">
                    <mxGeometry width="50" height="50" relative="1" as="geometry">
                        <mxPoint x="499" y="356" as="sourcePoint"/>
                        <mxPoint x="439" y="392" as="targetPoint"/>
                        <Array as="points">
                            <mxPoint x="499" y="392"/>
                        </Array>
                    </mxGeometry>
                </mxCell>
                <mxCell id="88" value="&lt;div style=&quot;&quot;&gt;&lt;br&gt;&lt;/div&gt;" style="rounded=0;whiteSpace=wrap;html=1;align=center;verticalAlign=top;fillColor=none;" vertex="1" parent="1">
                    <mxGeometry x="699" y="190" width="180" height="170" as="geometry"/>
                </mxCell>
                <mxCell id="82" value="View" style="rounded=0;whiteSpace=wrap;html=1;labelBackgroundColor=#FFFFFF;fontSize=17;labelBorderColor=none;fontStyle=1;strokeColor=none;" vertex="1" parent="1">
                    <mxGeometry x="763" y="174" width="65" height="30" as="geometry"/>
                </mxCell>
                <mxCell id="15" value="&lt;span style=&quot;font-weight: 400;&quot;&gt;text&lt;/span&gt;" style="text;strokeColor=none;fillColor=none;html=1;fontSize=16;fontStyle=1;verticalAlign=middle;align=center;labelBackgroundColor=#FFFFFF;" vertex="1" parent="1">
                    <mxGeometry x="149" y="206" width="50" height="30" as="geometry"/>
                </mxCell>
            </root>
        </mxGraphModel>
    </diagram>
</mxfile>